<svg width="703" height="703" viewBox="0 0 703 703" fill="none" xmlns="http://www.w3.org/2000/svg">
<path d="M266.633 11.1791C78.6959 58.04 -35.68 248.411 11.1864 436.392C58.0418 624.295 248.401 738.685 436.327 691.802C624.286 644.963 738.673 454.592 691.817 266.666C644.962 78.6965 454.58 -35.6817 266.633 11.1791Z" fill="black"/>
<path d="M503.454 349.969C498.332 348.716 492.516 349.532 487.282 352.237C482.048 354.941 477.827 359.314 475.545 364.392L415.334 498.464L280.147 465.373C275.044 464.221 269.295 465.096 264.138 467.809C258.98 470.522 254.826 474.856 252.571 479.878C250.315 484.9 250.139 490.207 252.08 494.658C254.021 499.108 257.923 502.345 262.947 503.672L417.443 541.488C422.564 542.741 428.381 541.925 433.614 539.221C438.848 536.516 443.07 532.144 445.351 527.065L514.162 373.844C516.442 368.766 516.595 363.397 514.587 358.92C512.579 354.443 508.574 351.223 503.454 349.969Z" fill="#F9B805"/>
<path d="M384.516 434.536C387.282 434.837 390.07 434.254 392.53 432.859C394.99 431.465 397.011 429.322 398.338 426.7L471.056 283.2C471.974 281.397 472.538 279.413 472.715 277.369C472.891 275.325 472.676 273.265 472.082 271.316C471.488 269.366 470.528 267.568 469.262 266.033C467.995 264.497 466.448 263.256 464.716 262.386L273.957 165.99C265.958 161.934 255.424 167.907 254.035 177.285L220.664 400.75C220.361 402.776 220.447 404.846 220.916 406.833C221.385 408.82 222.227 410.682 223.392 412.307C224.556 413.931 226.018 415.283 227.688 416.281C229.358 417.278 231.202 417.899 233.105 418.106L384.516 434.536ZM439.208 282.882L378.089 403.51L278.863 201.851L439.208 282.882Z" fill="#F9B805"/>
</svg>
