<svg width="614" height="695" viewBox="0 0 614 695" fill="none" xmlns="http://www.w3.org/2000/svg">
<path d="M525.352 344.938C518.011 343.237 509.671 344.344 502.168 348.018C494.665 351.691 488.613 357.63 485.342 364.527L399.022 546.622L205.215 501.679C197.901 500.114 189.659 501.302 182.265 504.987C174.87 508.672 168.915 514.558 165.682 521.379C162.449 528.199 162.196 535.408 164.978 541.453C167.761 547.497 173.355 551.894 180.557 553.695L402.046 605.057C409.387 606.759 417.727 605.651 425.23 601.977C432.733 598.304 438.785 592.365 442.056 585.468L540.705 377.365C543.973 370.467 544.192 363.176 541.313 357.095C538.434 351.014 532.693 346.641 525.352 344.938Z" fill="#F9B805"/>
<path d="M354.844 459.797C358.808 460.206 362.806 459.413 366.332 457.519C369.859 455.625 372.756 452.714 374.659 449.154L478.909 254.254C480.224 251.805 481.034 249.11 481.287 246.334C481.54 243.558 481.231 240.76 480.38 238.113C479.528 235.465 478.153 233.023 476.336 230.938C474.52 228.852 472.303 227.166 469.819 225.984L196.345 95.0607C184.877 89.5523 169.775 97.6638 167.783 110.402L119.942 413.909C119.508 416.66 119.631 419.471 120.303 422.17C120.976 424.869 122.184 427.399 123.853 429.605C125.522 431.812 127.618 433.648 130.013 435.002C132.407 436.356 135.049 437.2 137.778 437.481L354.844 459.797ZM433.251 253.821L345.629 417.657L203.377 143.767L433.251 253.821Z" fill="#F9B805"/>
</svg>
