<svg width="836" height="835" viewBox="0 0 836 835" fill="none" xmlns="http://www.w3.org/2000/svg">
<path d="M418.5 -0.000164856C335.926 -0.000161247 255.207 24.4857 186.549 70.3612C117.892 116.237 64.3799 181.441 32.7802 257.73C1.18064 334.018 -7.08718 417.963 9.02214 498.95C25.1315 579.937 64.8945 654.328 123.283 712.717C181.671 771.105 256.063 810.868 337.05 826.978C418.037 843.087 501.982 834.819 578.27 803.22C654.558 771.62 719.763 718.108 765.639 649.45C811.514 580.793 836 500.074 836 417.5L418.5 417.5L418.5 -0.000164856Z" fill="#F9B805" fill-opacity="0.9"/>
<path fill-rule="evenodd" clip-rule="evenodd" d="M418.5 417.5L836 417.5C836 423.036 835.89 428.564 835.671 434.081C832.62 510.844 808.438 585.396 765.639 649.45C719.763 718.108 654.558 771.62 578.27 803.22C501.982 834.819 418.037 843.087 337.05 826.978C256.063 810.868 181.671 771.105 123.283 712.717C64.8945 654.328 25.1315 579.937 9.02214 498.95C-7.08718 417.963 1.18064 334.018 32.7802 257.73C64.3799 181.441 117.892 116.237 186.549 70.3612C250.603 27.5617 325.156 3.37954 401.919 0.329182C407.435 0.109943 412.963 -0.000164614 418.5 -0.000164856L418.5 417.5ZM401.919 16.9242L401.919 417.5C401.919 421.898 403.666 426.115 406.775 429.225C409.885 432.334 414.102 434.081 418.5 434.081L819.076 434.081C816.035 507.563 792.829 578.911 751.852 640.238C707.798 706.169 645.183 757.556 571.925 787.9C498.667 818.245 418.055 826.184 340.285 810.715C262.514 795.245 191.077 757.062 135.008 700.992C78.9382 644.923 40.7544 573.486 25.2848 495.715C9.81535 417.945 17.7549 337.333 48.0994 264.075C78.4441 190.817 129.831 128.202 195.762 84.1482C257.088 43.1708 328.437 19.9652 401.919 16.9242Z" fill="white"/>
<path d="M333.633 77.1771C145.696 124.038 31.32 314.409 78.1864 502.39C125.042 690.294 315.401 804.683 503.327 757.8C691.286 710.961 805.673 520.59 758.817 332.664C711.962 144.695 521.58 30.3163 333.633 77.1771Z" fill="#F9B805"/>
<path d="M567.824 410.096C562.862 408.946 557.227 409.695 552.157 412.177C547.087 414.66 542.997 418.673 540.786 423.334L482.455 546.386L351.487 516.016C346.544 514.958 340.975 515.761 335.978 518.251C330.981 520.741 326.957 524.719 324.772 529.328C322.587 533.937 322.417 538.808 324.297 542.893C326.177 546.978 329.958 549.949 334.824 551.166L484.498 585.875C489.459 587.024 495.094 586.276 500.164 583.793C505.235 581.311 509.325 577.298 511.535 572.637L578.198 432.009C580.407 427.348 580.555 422.421 578.609 418.312C576.664 414.202 572.784 411.247 567.824 410.096Z" fill="white"/>
<path d="M452.599 487.713C455.278 487.99 457.979 487.454 460.362 486.174C462.745 484.894 464.703 482.927 465.989 480.521L536.437 348.816C537.326 347.161 537.873 345.339 538.044 343.463C538.215 341.587 538.006 339.697 537.431 337.908C536.856 336.118 535.926 334.468 534.699 333.059C533.472 331.65 531.973 330.511 530.295 329.712L345.491 241.239C337.742 237.516 327.536 242.998 326.191 251.605L293.861 456.704C293.568 458.563 293.651 460.463 294.105 462.287C294.56 464.11 295.376 465.82 296.504 467.311C297.632 468.802 299.049 470.043 300.667 470.958C302.285 471.873 304.07 472.443 305.914 472.633L452.599 487.713ZM505.583 348.523L446.372 459.237L350.243 274.152L505.583 348.523Z" fill="white"/>
<path fill-rule="evenodd" clip-rule="evenodd" d="M333.633 77.1771C521.58 30.3163 711.962 144.695 758.817 332.664C805.673 520.59 691.286 710.961 503.327 757.8C315.401 804.683 125.042 690.294 78.1864 502.39C31.32 314.409 145.696 124.038 333.633 77.1771ZM94.2753 498.378C49.6237 319.281 158.595 137.911 337.644 93.2659C516.707 48.6204 698.088 157.592 742.728 336.675L742.729 336.676C787.368 515.715 678.39 697.086 499.318 741.711L499.314 741.712C320.275 786.377 138.915 677.397 94.2753 498.378Z" fill="white"/>
</svg>
